# xmcd CD database file
#
# Track frame offsets:
#	150
#	26822
#	44033
#	76362
#	95138
#	113422
#	133133
#	158065
#	172680
#	189408
#	211678
#	231553
#	251358
#	270929
#	302074
#
# Disc length: 4360 seconds
#
# Revision: 0
# Processed by: cddbd v1.5.2PL0 Copyright (c) Steve Scherf et al.
# Submitted via: CDex 1.70beta2
#
DISCID=c111060f
DTITLE=Mario Biondi and The High Five Quintet - Handful Of Soul
DYEAR=2006
DGENRE=Jazz
TTITLE0=Child Runs Free
TTITLE1=No Mercy for Me
TTITLE2=This Is What You Are
TTITLE3=Rio de Janeiro Blue
TTITLE4=Slow Hot Wind
TTITLE5=Handful of Soul
TTITLE6=Never Die
TTITLE7=On a Clear Day (You Can See Forever)
TTITLE8=Gig
TTITLE9=I Can't Keep from Cryin' Sometimes
TTITLE10=No Trouble on the Mountain
TTITLE11=I'm Her Daddy
TTITLE12=No Trouble On The Mountain(was a bee remix)
TTITLE13=This Is What You Are(Radio Edition)
TTITLE14=This Is WhatYou Are (PV)
EXTD=YEAR: 2006
EXTT0=
EXTT1=
EXTT2=
EXTT3=
EXTT4=
EXTT5=
EXTT6=
EXTT7=
EXTT8=
EXTT9=
EXTT10=
EXTT11=
EXTT12=
EXTT13=
EXTT14=
PLAYORDER=
